<svg width="105" height="152" viewBox="0 0 105 152" fill="none" xmlns="http://www.w3.org/2000/svg">
<path d="M0 3.99999C0 1.79085 1.79086 -1.52588e-05 4 -1.52588e-05H124C126.209 -1.52588e-05 128 1.79085 128 3.99998V148C128 150.209 126.209 152 124 152H4C1.79086 152 0 150.209 0 148V3.99999Z" fill="white"/>
<path fill-rule="evenodd" clip-rule="evenodd" d="M64.5 108C82.4493 108 97 93.4493 97 75.5C97 57.5507 82.4493 43 64.5 43C46.5507 43 32 57.5507 32 75.5C32 93.4493 46.5507 108 64.5 108ZM64.5 122C90.1812 122 111 101.181 111 75.5C111 49.8188 90.1812 29 64.5 29C38.8188 29 18 49.8188 18 75.5C18 101.181 38.8188 122 64.5 122Z" fill="url(#paint0_linear_26_87)"/>
<path d="M47.6094 70.7188C47.6094 72.9896 48.1979 74.7865 49.375 76.1094C50.5521 77.4219 52.1562 78.0781 54.1875 78.0781C56.0729 78.0781 57.5469 77.4062 58.6094 76.0625C59.6823 74.7188 60.2188 73.0417 60.2188 71.0312H59.0469C59.0469 72.1771 58.7292 73.0885 58.0938 73.7656C57.4583 74.4427 56.6667 74.7812 55.7188 74.7812C54.7083 74.7812 53.9583 74.4427 53.4688 73.7656C52.9792 73.0781 52.7344 72.0729 52.7344 70.75C52.7344 69.2396 52.9792 68.1562 53.4688 67.5C53.9688 66.8333 54.7083 66.5 55.6875 66.5C56.7396 66.5 57.5573 66.9323 58.1406 67.7969C58.724 68.6615 59.0156 70.2083 59.0156 72.4375L59.1562 73.0625C59.1562 76.3646 58.4323 78.7083 56.9844 80.0938C55.5365 81.4792 53.4896 82.1667 50.8438 82.1562H50.1406V86.125H50.9531C55.2031 86.0833 58.4479 84.9323 60.6875 82.6719C62.9375 80.401 64.0625 77.3438 64.0625 73.5V72.6875C64.0625 69.2292 63.2865 66.7292 61.7344 65.1875C60.1823 63.6354 58.1771 62.8594 55.7188 62.8594C53.25 62.8594 51.2812 63.5729 49.8125 65C48.3438 66.4271 47.6094 68.3333 47.6094 70.7188Z" fill="#242742"/>
<path d="M74.9219 86H79.75V63.25H75.2344L65.125 77.8125V81.25H82.2656V77.3594H77.3281L76.5156 77.4375H70.0156L74.8438 69.875H75V79.4688L74.9219 80.0156V86Z" fill="#242742"/>
<defs>
<linearGradient id="paint0_linear_26_87" x1="64.5" y1="29" x2="64.5" y2="122" gradientUnits="userSpaceOnUse">
<stop stop-color="#FF6A3D"/>
<stop offset="1" stop-color="#FF5B66"/>
</linearGradient>
</defs>
</svg>
